<?xml version="1.0" encoding="UTF-8"?>
<!-- Generated by jsxcad -->
<!DOCTYPE svg PUBLIC "-//W3C//DTD SVG 1.1 Tiny//EN" "http://www.w3.org/Graphics/SVG/1.1/DTD/svg11-tiny.dtd">
<svg baseProfile="tiny" height="26.881218274111696mm" width="20.000000000000014mm" viewBox="-10.000000000000007 -13.78087986463622 20.000000000000014 26.881218274111696" version="1.1" stroke="black" stroke-width=".1" fill="none" xmlns="http://www.w3.org/2000/svg">
<path fill="#3c3c3c" stroke="#3c3c3c" d="M5 3.7070219966159064 L5 6.886717428087987 L5 -7.6193739424703875 L5 -10.799069373942467 z"/>
<path fill="#3c3c3c" stroke="#3c3c3c" d="M7.5 3.7070219966159055 L7.5 6.8867174280879855 L5 6.8867174280879855 L5 3.7070219966159055 z"/>
<path fill="#3c3c3c" stroke="#3c3c3c" d="M7.5 -10.799069373942467 L7.5 -7.6193739424703875 L7.5 6.886717428087987 L7.5 3.7070219966159064 z"/>
<path fill="#3c3c3c" stroke="#3c3c3c" d="M5 -10.79906937394247 L5 -7.619373942470389 L7.5 -7.619373942470389 L7.5 -10.79906937394247 z"/>
<path fill="#3c3c3c" stroke="#3c3c3c" d="M5 3.707021996615906 L5 -10.799069373942467 L7.5 -10.799069373942467 L7.5 3.707021996615906 z"/>
<path fill="#3c3c3c" stroke="#3c3c3c" d="M5 6.886717428087986 L7.5 6.886717428087986 L7.5 -7.6193739424703875 L5 -7.6193739424703875 z"/>
<path fill="#ffb09d" stroke="#ffb09d" d="M5.75 6.341854483925551 L5.75 8.46165143824027 L5.75 7.7540372250423015 L5.75 5.634240270727581 z"/>
<path fill="#ffb09d" stroke="#ffb09d" d="M6.75 6.341854483925549 L6.75 8.461651438240269 L5.75 8.461651438240269 L5.75 6.341854483925549 z"/>
<path fill="#ffb09d" stroke="#ffb09d" d="M6.75 5.634240270727581 L6.75 7.7540372250423015 L6.75 8.46165143824027 L6.75 6.341854483925551 z"/>
<path fill="#ffb09d" stroke="#ffb09d" d="M5.75 5.634240270727579 L5.75 7.754037225042301 L6.75 7.754037225042301 L6.75 5.634240270727579 z"/>
<path fill="#ffb09d" stroke="#ffb09d" d="M5.75 6.34185448392555 L5.75 5.634240270727581 L6.75 5.634240270727581 L6.75 6.34185448392555 z"/>
<path fill="#ffb09d" stroke="#ffb09d" d="M5.75 8.46165143824027 L6.75 8.46165143824027 L6.75 7.7540372250423015 L5.75 7.7540372250423015 z"/>
<path fill="#ffb09d" stroke="#ffb09d" d="M5.75 4.544514382402708 L5.75 6.664311336717429 L5.75 5.95669712351946 L5.75 3.8369001692047386 z"/>
<path fill="#ffb09d" stroke="#ffb09d" d="M6.75 4.544514382402706 L6.75 6.664311336717428 L5.75 6.664311336717428 L5.75 4.544514382402706 z"/>
<path fill="#ffb09d" stroke="#ffb09d" d="M6.75 3.8369001692047386 L6.75 5.95669712351946 L6.75 6.664311336717429 L6.75 4.544514382402708 z"/>
<path fill="#ffb09d" stroke="#ffb09d" d="M5.75 3.8369001692047378 L5.75 5.956697123519458 L6.75 5.956697123519458 L6.75 3.8369001692047378 z"/>
<path fill="#ffb09d" stroke="#ffb09d" d="M5.75 4.544514382402708 L5.75 3.8369001692047386 L6.75 3.8369001692047386 L6.75 4.544514382402708 z"/>
<path fill="#ffb09d" stroke="#ffb09d" d="M5.75 6.664311336717428 L6.75 6.664311336717428 L6.75 5.956697123519458 L5.75 5.956697123519458 z"/>
<path fill="#ffb09d" stroke="#ffb09d" d="M5.75 2.7471742808798654 L5.75 4.866971235194586 L5.75 4.159357021996617 L5.75 2.039560067681896 z"/>
<path fill="#ffb09d" stroke="#ffb09d" d="M6.75 2.7471742808798645 L6.75 4.866971235194585 L5.75 4.866971235194585 L5.75 2.7471742808798645 z"/>
<path fill="#ffb09d" stroke="#ffb09d" d="M6.75 2.039560067681896 L6.75 4.159357021996617 L6.75 4.866971235194586 L6.75 2.7471742808798654 z"/>
<path fill="#ffb09d" stroke="#ffb09d" d="M5.75 2.0395600676818955 L5.75 4.159357021996616 L6.75 4.159357021996616 L6.75 2.0395600676818955 z"/>
<path fill="#ffb09d" stroke="#ffb09d" d="M5.75 2.7471742808798654 L5.75 2.039560067681896 L6.75 2.039560067681896 L6.75 2.7471742808798654 z"/>
<path fill="#ffb09d" stroke="#ffb09d" d="M5.75 4.866971235194586 L6.75 4.866971235194586 L6.75 4.159357021996616 L5.75 4.159357021996616 z"/>
<path fill="#ffb09d" stroke="#ffb09d" d="M5.75 0.9498341793570231 L5.75 3.0696311336717437 L5.75 2.362016920473774 L5.75 0.24221996615905353 z"/>
<path fill="#ffb09d" stroke="#ffb09d" d="M6.75 0.9498341793570225 L6.75 3.0696311336717432 L5.75 3.0696311336717432 L5.75 0.9498341793570225 z"/>
<path fill="#ffb09d" stroke="#ffb09d" d="M6.75 0.24221996615905353 L6.75 2.362016920473774 L6.75 3.0696311336717437 L6.75 0.9498341793570231 z"/>
<path fill="#ffb09d" stroke="#ffb09d" d="M5.75 0.24221996615905336 L5.75 2.3620169204737738 L6.75 2.3620169204737738 L6.75 0.24221996615905336 z"/>
<path fill="#ffb09d" stroke="#ffb09d" d="M5.75 0.9498341793570231 L5.75 0.24221996615905353 L6.75 0.24221996615905353 L6.75 0.9498341793570231 z"/>
<path fill="#ffb09d" stroke="#ffb09d" d="M5.75 3.0696311336717432 L6.75 3.0696311336717432 L6.75 2.3620169204737738 L5.75 2.3620169204737738 z"/>
<path fill="#ffb09d" stroke="#ffb09d" d="M5.75 -0.8475059221658195 L5.75 1.2722910321489012 L5.75 0.5646768189509317 L5.75 -1.555120135363789 z"/>
<path fill="#ffb09d" stroke="#ffb09d" d="M6.75 -0.8475059221658195 L6.75 1.2722910321489012 L5.75 1.2722910321489012 L5.75 -0.8475059221658195 z"/>
<path fill="#ffb09d" stroke="#ffb09d" d="M6.75 -1.555120135363789 L6.75 0.5646768189509317 L6.75 1.2722910321489012 L6.75 -0.8475059221658195 z"/>
<path fill="#ffb09d" stroke="#ffb09d" d="M5.75 -1.5551201353637907 L5.75 0.56467681895093 L6.75 0.56467681895093 L6.75 -1.5551201353637907 z"/>
<path fill="#ffb09d" stroke="#ffb09d" d="M5.75 -0.8475059221658193 L5.75 -1.555120135363789 L6.75 -1.555120135363789 L6.75 -0.8475059221658193 z"/>
<path fill="#ffb09d" stroke="#ffb09d" d="M5.75 1.2722910321489012 L6.75 1.2722910321489012 L6.75 0.5646768189509316 L5.75 0.5646768189509316 z"/>
<path fill="#ffb09d" stroke="#ffb09d" d="M5.75 -2.6448460236886615 L5.75 -0.5250490693739407 L5.75 -1.2326632825719102 L5.75 -3.352460236886631 z"/>
<path fill="#ffb09d" stroke="#ffb09d" d="M6.75 -2.644846023688664 L6.75 -0.5250490693739435 L5.75 -0.5250490693739435 L5.75 -2.644846023688664 z"/>
<path fill="#ffb09d" stroke="#ffb09d" d="M6.75 -3.352460236886631 L6.75 -1.2326632825719102 L6.75 -0.5250490693739407 L6.75 -2.6448460236886615 z"/>
<path fill="#ffb09d" stroke="#ffb09d" d="M5.75 -3.3524602368866314 L5.75 -1.2326632825719108 L6.75 -1.2326632825719108 L6.75 -3.3524602368866314 z"/>
<path fill="#ffb09d" stroke="#ffb09d" d="M5.75 -2.644846023688661 L5.75 -3.3524602368866305 L6.75 -3.3524602368866305 L6.75 -2.644846023688661 z"/>
<path fill="#ffb09d" stroke="#ffb09d" d="M5.75 -0.5250490693739407 L6.75 -0.5250490693739407 L6.75 -1.2326632825719102 L5.75 -1.2326632825719102 z"/>
<path fill="#ffb09d" stroke="#ffb09d" d="M5.75 -4.442186125211505 L5.75 -2.3223891708967837 L5.75 -3.0300033840947536 L5.75 -5.149800338409474 z"/>
<path fill="#ffb09d" stroke="#ffb09d" d="M6.75 -4.442186125211507 L6.75 -2.3223891708967868 L5.75 -2.3223891708967868 L5.75 -4.442186125211507 z"/>
<path fill="#ffb09d" stroke="#ffb09d" d="M6.75 -5.149800338409474 L6.75 -3.0300033840947536 L6.75 -2.3223891708967837 L6.75 -4.442186125211505 z"/>
<path fill="#ffb09d" stroke="#ffb09d" d="M5.75 -5.149800338409475 L5.75 -3.030003384094754 L6.75 -3.030003384094754 L6.75 -5.149800338409475 z"/>
<path fill="#ffb09d" stroke="#ffb09d" d="M5.75 -4.442186125211504 L5.75 -5.149800338409474 L6.75 -5.149800338409474 L6.75 -4.442186125211504 z"/>
<path fill="#ffb09d" stroke="#ffb09d" d="M5.75 -2.3223891708967837 L6.75 -2.3223891708967837 L6.75 -3.030003384094753 L5.75 -3.030003384094753 z"/>
<path fill="#ffb09d" stroke="#ffb09d" d="M5.75 -6.239526226734347 L5.75 -4.119729272419627 L5.75 -4.827343485617597 L5.75 -6.947140439932317 z"/>
<path fill="#ffb09d" stroke="#ffb09d" d="M6.75 -6.239526226734351 L6.75 -4.11972927241963 L5.75 -4.11972927241963 L5.75 -6.239526226734351 z"/>
<path fill="#ffb09d" stroke="#ffb09d" d="M6.75 -6.947140439932317 L6.75 -4.827343485617597 L6.75 -4.119729272419627 L6.75 -6.239526226734347 z"/>
<path fill="#ffb09d" stroke="#ffb09d" d="M5.75 -6.947140439932318 L5.75 -4.827343485617598 L6.75 -4.827343485617598 L6.75 -6.947140439932318 z"/>
<path fill="#ffb09d" stroke="#ffb09d" d="M5.75 -6.239526226734347 L5.75 -6.9471404399323164 L6.75 -6.9471404399323164 L6.75 -6.239526226734347 z"/>
<path fill="#ffb09d" stroke="#ffb09d" d="M5.75 -4.119729272419627 L6.75 -4.119729272419627 L6.75 -4.827343485617597 L5.75 -4.827343485617597 z"/>
<path fill="#3c3c3c" stroke="#3c3c3c" d="M-7.5 3.7070219966159064 L-7.5 6.886717428087987 L-7.5 -7.6193739424703875 L-7.5 -10.799069373942467 z"/>
<path fill="#3c3c3c" stroke="#3c3c3c" d="M-5 3.7070219966159055 L-5 6.8867174280879855 L-7.5 6.8867174280879855 L-7.5 3.7070219966159055 z"/>
<path fill="#3c3c3c" stroke="#3c3c3c" d="M-5 -10.799069373942467 L-5 -7.6193739424703875 L-5 6.886717428087987 L-5 3.7070219966159064 z"/>
<path fill="#3c3c3c" stroke="#3c3c3c" d="M-7.5 -10.79906937394247 L-7.5 -7.619373942470389 L-5 -7.619373942470389 L-5 -10.79906937394247 z"/>
<path fill="#3c3c3c" stroke="#3c3c3c" d="M-7.5 3.707021996615906 L-7.5 -10.799069373942467 L-5 -10.799069373942467 L-5 3.707021996615906 z"/>
<path fill="#3c3c3c" stroke="#3c3c3c" d="M-7.5 6.886717428087986 L-5 6.886717428087986 L-5 -7.6193739424703875 L-7.5 -7.6193739424703875 z"/>
<path fill="#ffb09d" stroke="#ffb09d" d="M-6.75 6.341854483925551 L-6.75 8.46165143824027 L-6.75 7.7540372250423015 L-6.75 5.634240270727581 z"/>
<path fill="#ffb09d" stroke="#ffb09d" d="M-5.75 6.341854483925549 L-5.75 8.461651438240269 L-6.75 8.461651438240269 L-6.75 6.341854483925549 z"/>
<path fill="#ffb09d" stroke="#ffb09d" d="M-5.75 5.634240270727581 L-5.75 7.7540372250423015 L-5.75 8.46165143824027 L-5.75 6.341854483925551 z"/>
<path fill="#ffb09d" stroke="#ffb09d" d="M-6.75 5.634240270727579 L-6.75 7.754037225042301 L-5.75 7.754037225042301 L-5.75 5.634240270727579 z"/>
<path fill="#ffb09d" stroke="#ffb09d" d="M-6.75 6.34185448392555 L-6.75 5.634240270727581 L-5.75 5.634240270727581 L-5.75 6.34185448392555 z"/>
<path fill="#ffb09d" stroke="#ffb09d" d="M-6.75 8.46165143824027 L-5.75 8.46165143824027 L-5.75 7.7540372250423015 L-6.75 7.7540372250423015 z"/>
<path fill="#ffb09d" stroke="#ffb09d" d="M-6.75 4.544514382402708 L-6.75 6.664311336717429 L-6.75 5.95669712351946 L-6.75 3.8369001692047386 z"/>
<path fill="#ffb09d" stroke="#ffb09d" d="M-5.75 4.544514382402706 L-5.75 6.664311336717428 L-6.75 6.664311336717428 L-6.75 4.544514382402706 z"/>
<path fill="#ffb09d" stroke="#ffb09d" d="M-5.75 3.8369001692047386 L-5.75 5.95669712351946 L-5.75 6.664311336717429 L-5.75 4.544514382402708 z"/>
<path fill="#ffb09d" stroke="#ffb09d" d="M-6.75 3.8369001692047378 L-6.75 5.956697123519458 L-5.75 5.956697123519458 L-5.75 3.8369001692047378 z"/>
<path fill="#ffb09d" stroke="#ffb09d" d="M-6.75 4.544514382402708 L-6.75 3.8369001692047386 L-5.75 3.8369001692047386 L-5.75 4.544514382402708 z"/>
<path fill="#ffb09d" stroke="#ffb09d" d="M-6.75 6.664311336717428 L-5.75 6.664311336717428 L-5.75 5.956697123519458 L-6.75 5.956697123519458 z"/>
<path fill="#ffb09d" stroke="#ffb09d" d="M-6.75 2.7471742808798654 L-6.75 4.866971235194586 L-6.75 4.159357021996617 L-6.75 2.039560067681896 z"/>
<path fill="#ffb09d" stroke="#ffb09d" d="M-5.75 2.7471742808798645 L-5.75 4.866971235194585 L-6.75 4.866971235194585 L-6.75 2.7471742808798645 z"/>
<path fill="#ffb09d" stroke="#ffb09d" d="M-5.75 2.039560067681896 L-5.75 4.159357021996617 L-5.75 4.866971235194586 L-5.75 2.7471742808798654 z"/>
<path fill="#ffb09d" stroke="#ffb09d" d="M-6.75 2.0395600676818955 L-6.75 4.159357021996616 L-5.75 4.159357021996616 L-5.75 2.0395600676818955 z"/>
<path fill="#ffb09d" stroke="#ffb09d" d="M-6.75 2.7471742808798654 L-6.75 2.039560067681896 L-5.75 2.039560067681896 L-5.75 2.7471742808798654 z"/>
<path fill="#ffb09d" stroke="#ffb09d" d="M-6.75 4.866971235194586 L-5.75 4.866971235194586 L-5.75 4.159357021996616 L-6.75 4.159357021996616 z"/>
<path fill="#ffb09d" stroke="#ffb09d" d="M-6.75 0.9498341793570231 L-6.75 3.0696311336717437 L-6.75 2.362016920473774 L-6.75 0.24221996615905353 z"/>
<path fill="#ffb09d" stroke="#ffb09d" d="M-5.75 0.9498341793570225 L-5.75 3.0696311336717432 L-6.75 3.0696311336717432 L-6.75 0.9498341793570225 z"/>
<path fill="#ffb09d" stroke="#ffb09d" d="M-5.75 0.24221996615905353 L-5.75 2.362016920473774 L-5.75 3.0696311336717437 L-5.75 0.9498341793570231 z"/>
<path fill="#ffb09d" stroke="#ffb09d" d="M-6.75 0.24221996615905336 L-6.75 2.3620169204737738 L-5.75 2.3620169204737738 L-5.75 0.24221996615905336 z"/>
<path fill="#ffb09d" stroke="#ffb09d" d="M-6.75 0.9498341793570231 L-6.75 0.24221996615905353 L-5.75 0.24221996615905353 L-5.75 0.9498341793570231 z"/>
<path fill="#ffb09d" stroke="#ffb09d" d="M-6.75 3.0696311336717432 L-5.75 3.0696311336717432 L-5.75 2.3620169204737738 L-6.75 2.3620169204737738 z"/>
<path fill="#ffb09d" stroke="#ffb09d" d="M-6.75 -0.8475059221658195 L-6.75 1.2722910321489012 L-6.75 0.5646768189509317 L-6.75 -1.555120135363789 z"/>
<path fill="#ffb09d" stroke="#ffb09d" d="M-5.75 -0.8475059221658195 L-5.75 1.2722910321489012 L-6.75 1.2722910321489012 L-6.75 -0.8475059221658195 z"/>
<path fill="#ffb09d" stroke="#ffb09d" d="M-5.75 -1.555120135363789 L-5.75 0.5646768189509317 L-5.75 1.2722910321489012 L-5.75 -0.8475059221658195 z"/>
<path fill="#ffb09d" stroke="#ffb09d" d="M-6.75 -1.5551201353637907 L-6.75 0.56467681895093 L-5.75 0.56467681895093 L-5.75 -1.5551201353637907 z"/>
<path fill="#ffb09d" stroke="#ffb09d" d="M-6.75 -0.8475059221658193 L-6.75 -1.555120135363789 L-5.75 -1.555120135363789 L-5.75 -0.8475059221658193 z"/>
<path fill="#ffb09d" stroke="#ffb09d" d="M-6.75 1.2722910321489012 L-5.75 1.2722910321489012 L-5.75 0.5646768189509316 L-6.75 0.5646768189509316 z"/>
<path fill="#ffb09d" stroke="#ffb09d" d="M-6.75 -2.6448460236886615 L-6.75 -0.5250490693739407 L-6.75 -1.2326632825719102 L-6.75 -3.352460236886631 z"/>
<path fill="#ffb09d" stroke="#ffb09d" d="M-5.75 -2.644846023688664 L-5.75 -0.5250490693739435 L-6.75 -0.5250490693739435 L-6.75 -2.644846023688664 z"/>
<path fill="#ffb09d" stroke="#ffb09d" d="M-5.75 -3.352460236886631 L-5.75 -1.2326632825719102 L-5.75 -0.5250490693739407 L-5.75 -2.6448460236886615 z"/>
<path fill="#ffb09d" stroke="#ffb09d" d="M-6.75 -3.3524602368866314 L-6.75 -1.2326632825719108 L-5.75 -1.2326632825719108 L-5.75 -3.3524602368866314 z"/>
<path fill="#ffb09d" stroke="#ffb09d" d="M-6.75 -2.644846023688661 L-6.75 -3.3524602368866305 L-5.75 -3.3524602368866305 L-5.75 -2.644846023688661 z"/>
<path fill="#ffb09d" stroke="#ffb09d" d="M-6.75 -0.5250490693739407 L-5.75 -0.5250490693739407 L-5.75 -1.2326632825719102 L-6.75 -1.2326632825719102 z"/>
<path fill="#ffb09d" stroke="#ffb09d" d="M-6.75 -4.442186125211505 L-6.75 -2.3223891708967837 L-6.75 -3.0300033840947536 L-6.75 -5.149800338409474 z"/>
<path fill="#ffb09d" stroke="#ffb09d" d="M-5.75 -4.442186125211507 L-5.75 -2.3223891708967868 L-6.75 -2.3223891708967868 L-6.75 -4.442186125211507 z"/>
<path fill="#ffb09d" stroke="#ffb09d" d="M-5.75 -5.149800338409474 L-5.75 -3.0300033840947536 L-5.75 -2.3223891708967837 L-5.75 -4.442186125211505 z"/>
<path fill="#ffb09d" stroke="#ffb09d" d="M-6.75 -5.149800338409475 L-6.75 -3.030003384094754 L-5.75 -3.030003384094754 L-5.75 -5.149800338409475 z"/>
<path fill="#ffb09d" stroke="#ffb09d" d="M-6.75 -4.442186125211504 L-6.75 -5.149800338409474 L-5.75 -5.149800338409474 L-5.75 -4.442186125211504 z"/>
<path fill="#ffb09d" stroke="#ffb09d" d="M-6.75 -2.3223891708967837 L-5.75 -2.3223891708967837 L-5.75 -3.030003384094753 L-6.75 -3.030003384094753 z"/>
<path fill="#ffb09d" stroke="#ffb09d" d="M-6.75 -6.239526226734347 L-6.75 -4.119729272419627 L-6.75 -4.827343485617597 L-6.75 -6.947140439932317 z"/>
<path fill="#ffb09d" stroke="#ffb09d" d="M-5.75 -6.239526226734351 L-5.75 -4.11972927241963 L-6.75 -4.11972927241963 L-6.75 -6.239526226734351 z"/>
<path fill="#ffb09d" stroke="#ffb09d" d="M-5.75 -6.947140439932317 L-5.75 -4.827343485617597 L-5.75 -4.119729272419627 L-5.75 -6.239526226734347 z"/>
<path fill="#ffb09d" stroke="#ffb09d" d="M-6.75 -6.947140439932318 L-6.75 -4.827343485617598 L-5.75 -4.827343485617598 L-5.75 -6.947140439932318 z"/>
<path fill="#ffb09d" stroke="#ffb09d" d="M-6.75 -6.239526226734347 L-6.75 -6.9471404399323164 L-5.75 -6.9471404399323164 L-5.75 -6.239526226734347 z"/>
<path fill="#ffb09d" stroke="#ffb09d" d="M-6.75 -4.119729272419627 L-5.75 -4.119729272419627 L-5.75 -4.827343485617597 L-6.75 -4.827343485617597 z"/>
<path fill="#bababa" stroke="#bababa" d="M-10 8.12808798646362 L-10 13.78087986463621 L-10 -7.447546531302875 L-10 -13.100338409475464 z"/>
<path fill="#bababa" stroke="#bababa" d="M10 8.12808798646362 L10 13.78087986463621 L-10 13.78087986463621 L-10 8.12808798646362 z"/>
<path fill="#bababa" stroke="#bababa" d="M10 -13.100338409475464 L10 -7.447546531302875 L10 13.78087986463621 L10 8.12808798646362 z"/>
<path fill="#bababa" stroke="#bababa" d="M-10 -13.100338409475464 L-10 -7.447546531302877 L10 -7.447546531302877 L10 -13.100338409475464 z"/>
<path fill="#bababa" stroke="#bababa" d="M-10 8.12808798646362 L-10 -13.100338409475462 L10 -13.100338409475462 L10 8.12808798646362 z"/>
<path fill="#bababa" stroke="#bababa" d="M-10 13.78087986463621 L10 13.78087986463621 L10 -7.447546531302874 L-10 -7.447546531302874 z"/>
</svg>