<?xml version="1.0" encoding="UTF-8"?>
<!-- Generated by jsxcad -->
<!DOCTYPE svg PUBLIC "-//W3C//DTD SVG 1.1 Tiny//EN" "http://www.w3.org/Graphics/SVG/1.1/DTD/svg11-tiny.dtd">
<svg baseProfile="tiny" height="27.58781725888327mm" width="18.000000000000014mm" viewBox="-9.000000000000007 -13.78087986463622 18.000000000000014 27.58781725888327" version="1.1" stroke="black" stroke-width=".1" fill="none" xmlns="http://www.w3.org/2000/svg">
<path fill="#3c3c3c" stroke="#3c3c3c" d="M5 4.060829103214891 L5 7.240524534686972 L5 -7.973181049069372 L5 -11.152876480541453 z"/>
<path fill="#3c3c3c" stroke="#3c3c3c" d="M7.5 4.060829103214891 L7.5 7.240524534686971 L5 7.240524534686971 L5 4.060829103214891 z"/>
<path fill="#3c3c3c" stroke="#3c3c3c" d="M7.5 -11.152876480541453 L7.5 -7.973181049069372 L7.5 7.240524534686972 L7.5 4.060829103214891 z"/>
<path fill="#3c3c3c" stroke="#3c3c3c" d="M5 -11.152876480541453 L5 -7.973181049069374 L7.5 -7.973181049069374 L7.5 -11.152876480541453 z"/>
<path fill="#3c3c3c" stroke="#3c3c3c" d="M5 4.06082910321489 L5 -11.152876480541451 L7.5 -11.152876480541451 L7.5 4.06082910321489 z"/>
<path fill="#3c3c3c" stroke="#3c3c3c" d="M5 7.240524534686971 L7.5 7.240524534686971 L7.5 -7.973181049069372 L5 -7.973181049069372 z"/>
<path fill="#ffb09d" stroke="#ffb09d" d="M5.75 6.341854483925551 L5.75 8.46165143824027 L5.75 7.7540372250423015 L5.75 5.634240270727581 z"/>
<path fill="#ffb09d" stroke="#ffb09d" d="M6.75 6.341854483925549 L6.75 8.461651438240269 L5.75 8.461651438240269 L5.75 6.341854483925549 z"/>
<path fill="#ffb09d" stroke="#ffb09d" d="M6.75 5.634240270727581 L6.75 7.7540372250423015 L6.75 8.46165143824027 L6.75 6.341854483925551 z"/>
<path fill="#ffb09d" stroke="#ffb09d" d="M5.75 5.634240270727579 L5.75 7.754037225042301 L6.75 7.754037225042301 L6.75 5.634240270727579 z"/>
<path fill="#ffb09d" stroke="#ffb09d" d="M5.75 6.34185448392555 L5.75 5.634240270727581 L6.75 5.634240270727581 L6.75 6.34185448392555 z"/>
<path fill="#ffb09d" stroke="#ffb09d" d="M5.75 8.46165143824027 L6.75 8.46165143824027 L6.75 7.7540372250423015 L5.75 7.7540372250423015 z"/>
<path fill="#ffb09d" stroke="#ffb09d" d="M5.75 4.544514382402708 L5.75 6.664311336717429 L5.75 5.95669712351946 L5.75 3.8369001692047386 z"/>
<path fill="#ffb09d" stroke="#ffb09d" d="M6.75 4.544514382402706 L6.75 6.664311336717428 L5.75 6.664311336717428 L5.75 4.544514382402706 z"/>
<path fill="#ffb09d" stroke="#ffb09d" d="M6.75 3.8369001692047386 L6.75 5.95669712351946 L6.75 6.664311336717429 L6.75 4.544514382402708 z"/>
<path fill="#ffb09d" stroke="#ffb09d" d="M5.75 3.8369001692047378 L5.75 5.956697123519458 L6.75 5.956697123519458 L6.75 3.8369001692047378 z"/>
<path fill="#ffb09d" stroke="#ffb09d" d="M5.75 4.544514382402708 L5.75 3.8369001692047386 L6.75 3.8369001692047386 L6.75 4.544514382402708 z"/>
<path fill="#ffb09d" stroke="#ffb09d" d="M5.75 6.664311336717428 L6.75 6.664311336717428 L6.75 5.956697123519458 L5.75 5.956697123519458 z"/>
<path fill="#ffb09d" stroke="#ffb09d" d="M5.75 2.7471742808798654 L5.75 4.866971235194586 L5.75 4.159357021996617 L5.75 2.039560067681896 z"/>
<path fill="#ffb09d" stroke="#ffb09d" d="M6.75 2.7471742808798645 L6.75 4.866971235194585 L5.75 4.866971235194585 L5.75 2.7471742808798645 z"/>
<path fill="#ffb09d" stroke="#ffb09d" d="M6.75 2.039560067681896 L6.75 4.159357021996617 L6.75 4.866971235194586 L6.75 2.7471742808798654 z"/>
<path fill="#ffb09d" stroke="#ffb09d" d="M5.75 2.0395600676818955 L5.75 4.159357021996616 L6.75 4.159357021996616 L6.75 2.0395600676818955 z"/>
<path fill="#ffb09d" stroke="#ffb09d" d="M5.75 2.7471742808798654 L5.75 2.039560067681896 L6.75 2.039560067681896 L6.75 2.7471742808798654 z"/>
<path fill="#ffb09d" stroke="#ffb09d" d="M5.75 4.866971235194586 L6.75 4.866971235194586 L6.75 4.159357021996616 L5.75 4.159357021996616 z"/>
<path fill="#ffb09d" stroke="#ffb09d" d="M5.75 0.9498341793570231 L5.75 3.0696311336717437 L5.75 2.362016920473774 L5.75 0.24221996615905353 z"/>
<path fill="#ffb09d" stroke="#ffb09d" d="M6.75 0.9498341793570225 L6.75 3.0696311336717432 L5.75 3.0696311336717432 L5.75 0.9498341793570225 z"/>
<path fill="#ffb09d" stroke="#ffb09d" d="M6.75 0.24221996615905353 L6.75 2.362016920473774 L6.75 3.0696311336717437 L6.75 0.9498341793570231 z"/>
<path fill="#ffb09d" stroke="#ffb09d" d="M5.75 0.24221996615905336 L5.75 2.3620169204737738 L6.75 2.3620169204737738 L6.75 0.24221996615905336 z"/>
<path fill="#ffb09d" stroke="#ffb09d" d="M5.75 0.9498341793570231 L5.75 0.24221996615905353 L6.75 0.24221996615905353 L6.75 0.9498341793570231 z"/>
<path fill="#ffb09d" stroke="#ffb09d" d="M5.75 3.0696311336717432 L6.75 3.0696311336717432 L6.75 2.3620169204737738 L5.75 2.3620169204737738 z"/>
<path fill="#ffb09d" stroke="#ffb09d" d="M5.75 -0.8475059221658195 L5.75 1.2722910321489012 L5.75 0.5646768189509317 L5.75 -1.555120135363789 z"/>
<path fill="#ffb09d" stroke="#ffb09d" d="M6.75 -0.8475059221658195 L6.75 1.2722910321489012 L5.75 1.2722910321489012 L5.75 -0.8475059221658195 z"/>
<path fill="#ffb09d" stroke="#ffb09d" d="M6.75 -1.555120135363789 L6.75 0.5646768189509317 L6.75 1.2722910321489012 L6.75 -0.8475059221658195 z"/>
<path fill="#ffb09d" stroke="#ffb09d" d="M5.75 -1.5551201353637907 L5.75 0.56467681895093 L6.75 0.56467681895093 L6.75 -1.5551201353637907 z"/>
<path fill="#ffb09d" stroke="#ffb09d" d="M5.75 -0.8475059221658193 L5.75 -1.555120135363789 L6.75 -1.555120135363789 L6.75 -0.8475059221658193 z"/>
<path fill="#ffb09d" stroke="#ffb09d" d="M5.75 1.2722910321489012 L6.75 1.2722910321489012 L6.75 0.5646768189509316 L5.75 0.5646768189509316 z"/>
<path fill="#ffb09d" stroke="#ffb09d" d="M5.75 -2.6448460236886615 L5.75 -0.5250490693739407 L5.75 -1.2326632825719102 L5.75 -3.352460236886631 z"/>
<path fill="#ffb09d" stroke="#ffb09d" d="M6.75 -2.644846023688664 L6.75 -0.5250490693739435 L5.75 -0.5250490693739435 L5.75 -2.644846023688664 z"/>
<path fill="#ffb09d" stroke="#ffb09d" d="M6.75 -3.352460236886631 L6.75 -1.2326632825719102 L6.75 -0.5250490693739407 L6.75 -2.6448460236886615 z"/>
<path fill="#ffb09d" stroke="#ffb09d" d="M5.75 -3.3524602368866314 L5.75 -1.2326632825719108 L6.75 -1.2326632825719108 L6.75 -3.3524602368866314 z"/>
<path fill="#ffb09d" stroke="#ffb09d" d="M5.75 -2.644846023688661 L5.75 -3.3524602368866305 L6.75 -3.3524602368866305 L6.75 -2.644846023688661 z"/>
<path fill="#ffb09d" stroke="#ffb09d" d="M5.75 -0.5250490693739407 L6.75 -0.5250490693739407 L6.75 -1.2326632825719102 L5.75 -1.2326632825719102 z"/>
<path fill="#ffb09d" stroke="#ffb09d" d="M5.75 -4.442186125211505 L5.75 -2.3223891708967837 L5.75 -3.0300033840947536 L5.75 -5.149800338409474 z"/>
<path fill="#ffb09d" stroke="#ffb09d" d="M6.75 -4.442186125211507 L6.75 -2.3223891708967868 L5.75 -2.3223891708967868 L5.75 -4.442186125211507 z"/>
<path fill="#ffb09d" stroke="#ffb09d" d="M6.75 -5.149800338409474 L6.75 -3.0300033840947536 L6.75 -2.3223891708967837 L6.75 -4.442186125211505 z"/>
<path fill="#ffb09d" stroke="#ffb09d" d="M5.75 -5.149800338409475 L5.75 -3.030003384094754 L6.75 -3.030003384094754 L6.75 -5.149800338409475 z"/>
<path fill="#ffb09d" stroke="#ffb09d" d="M5.75 -4.442186125211504 L5.75 -5.149800338409474 L6.75 -5.149800338409474 L6.75 -4.442186125211504 z"/>
<path fill="#ffb09d" stroke="#ffb09d" d="M5.75 -2.3223891708967837 L6.75 -2.3223891708967837 L6.75 -3.030003384094753 L5.75 -3.030003384094753 z"/>
<path fill="#ffb09d" stroke="#ffb09d" d="M5.75 -6.239526226734347 L5.75 -4.119729272419627 L5.75 -4.827343485617597 L5.75 -6.947140439932317 z"/>
<path fill="#ffb09d" stroke="#ffb09d" d="M6.75 -6.239526226734351 L6.75 -4.11972927241963 L5.75 -4.11972927241963 L5.75 -6.239526226734351 z"/>
<path fill="#ffb09d" stroke="#ffb09d" d="M6.75 -6.947140439932317 L6.75 -4.827343485617597 L6.75 -4.119729272419627 L6.75 -6.239526226734347 z"/>
<path fill="#ffb09d" stroke="#ffb09d" d="M5.75 -6.947140439932318 L5.75 -4.827343485617598 L6.75 -4.827343485617598 L6.75 -6.947140439932318 z"/>
<path fill="#ffb09d" stroke="#ffb09d" d="M5.75 -6.239526226734347 L5.75 -6.9471404399323164 L6.75 -6.9471404399323164 L6.75 -6.239526226734347 z"/>
<path fill="#ffb09d" stroke="#ffb09d" d="M5.75 -4.119729272419627 L6.75 -4.119729272419627 L6.75 -4.827343485617597 L5.75 -4.827343485617597 z"/>
<path fill="#3c3c3c" stroke="#3c3c3c" d="M-7.5 4.060829103214891 L-7.5 7.240524534686972 L-7.5 -7.973181049069372 L-7.5 -11.152876480541453 z"/>
<path fill="#3c3c3c" stroke="#3c3c3c" d="M-5 4.060829103214891 L-5 7.240524534686971 L-7.5 7.240524534686971 L-7.5 4.060829103214891 z"/>
<path fill="#3c3c3c" stroke="#3c3c3c" d="M-5 -11.152876480541453 L-5 -7.973181049069372 L-5 7.240524534686972 L-5 4.060829103214891 z"/>
<path fill="#3c3c3c" stroke="#3c3c3c" d="M-7.5 -11.152876480541453 L-7.5 -7.973181049069374 L-5 -7.973181049069374 L-5 -11.152876480541453 z"/>
<path fill="#3c3c3c" stroke="#3c3c3c" d="M-7.5 4.06082910321489 L-7.5 -11.152876480541451 L-5 -11.152876480541451 L-5 4.06082910321489 z"/>
<path fill="#3c3c3c" stroke="#3c3c3c" d="M-7.5 7.240524534686971 L-5 7.240524534686971 L-5 -7.973181049069372 L-7.5 -7.973181049069372 z"/>
<path fill="#ffb09d" stroke="#ffb09d" d="M-6.75 6.341854483925551 L-6.75 8.46165143824027 L-6.75 7.7540372250423015 L-6.75 5.634240270727581 z"/>
<path fill="#ffb09d" stroke="#ffb09d" d="M-5.75 6.341854483925549 L-5.75 8.461651438240269 L-6.75 8.461651438240269 L-6.75 6.341854483925549 z"/>
<path fill="#ffb09d" stroke="#ffb09d" d="M-5.75 5.634240270727581 L-5.75 7.7540372250423015 L-5.75 8.46165143824027 L-5.75 6.341854483925551 z"/>
<path fill="#ffb09d" stroke="#ffb09d" d="M-6.75 5.634240270727579 L-6.75 7.754037225042301 L-5.75 7.754037225042301 L-5.75 5.634240270727579 z"/>
<path fill="#ffb09d" stroke="#ffb09d" d="M-6.75 6.34185448392555 L-6.75 5.634240270727581 L-5.75 5.634240270727581 L-5.75 6.34185448392555 z"/>
<path fill="#ffb09d" stroke="#ffb09d" d="M-6.75 8.46165143824027 L-5.75 8.46165143824027 L-5.75 7.7540372250423015 L-6.75 7.7540372250423015 z"/>
<path fill="#ffb09d" stroke="#ffb09d" d="M-6.75 4.544514382402708 L-6.75 6.664311336717429 L-6.75 5.95669712351946 L-6.75 3.8369001692047386 z"/>
<path fill="#ffb09d" stroke="#ffb09d" d="M-5.75 4.544514382402706 L-5.75 6.664311336717428 L-6.75 6.664311336717428 L-6.75 4.544514382402706 z"/>
<path fill="#ffb09d" stroke="#ffb09d" d="M-5.75 3.8369001692047386 L-5.75 5.95669712351946 L-5.75 6.664311336717429 L-5.75 4.544514382402708 z"/>
<path fill="#ffb09d" stroke="#ffb09d" d="M-6.75 3.8369001692047378 L-6.75 5.956697123519458 L-5.75 5.956697123519458 L-5.75 3.8369001692047378 z"/>
<path fill="#ffb09d" stroke="#ffb09d" d="M-6.75 4.544514382402708 L-6.75 3.8369001692047386 L-5.75 3.8369001692047386 L-5.75 4.544514382402708 z"/>
<path fill="#ffb09d" stroke="#ffb09d" d="M-6.75 6.664311336717428 L-5.75 6.664311336717428 L-5.75 5.956697123519458 L-6.75 5.956697123519458 z"/>
<path fill="#ffb09d" stroke="#ffb09d" d="M-6.75 2.7471742808798654 L-6.75 4.866971235194586 L-6.75 4.159357021996617 L-6.75 2.039560067681896 z"/>
<path fill="#ffb09d" stroke="#ffb09d" d="M-5.75 2.7471742808798645 L-5.75 4.866971235194585 L-6.75 4.866971235194585 L-6.75 2.7471742808798645 z"/>
<path fill="#ffb09d" stroke="#ffb09d" d="M-5.75 2.039560067681896 L-5.75 4.159357021996617 L-5.75 4.866971235194586 L-5.75 2.7471742808798654 z"/>
<path fill="#ffb09d" stroke="#ffb09d" d="M-6.75 2.0395600676818955 L-6.75 4.159357021996616 L-5.75 4.159357021996616 L-5.75 2.0395600676818955 z"/>
<path fill="#ffb09d" stroke="#ffb09d" d="M-6.75 2.7471742808798654 L-6.75 2.039560067681896 L-5.75 2.039560067681896 L-5.75 2.7471742808798654 z"/>
<path fill="#ffb09d" stroke="#ffb09d" d="M-6.75 4.866971235194586 L-5.75 4.866971235194586 L-5.75 4.159357021996616 L-6.75 4.159357021996616 z"/>
<path fill="#ffb09d" stroke="#ffb09d" d="M-6.75 0.9498341793570231 L-6.75 3.0696311336717437 L-6.75 2.362016920473774 L-6.75 0.24221996615905353 z"/>
<path fill="#ffb09d" stroke="#ffb09d" d="M-5.75 0.9498341793570225 L-5.75 3.0696311336717432 L-6.75 3.0696311336717432 L-6.75 0.9498341793570225 z"/>
<path fill="#ffb09d" stroke="#ffb09d" d="M-5.75 0.24221996615905353 L-5.75 2.362016920473774 L-5.75 3.0696311336717437 L-5.75 0.9498341793570231 z"/>
<path fill="#ffb09d" stroke="#ffb09d" d="M-6.75 0.24221996615905336 L-6.75 2.3620169204737738 L-5.75 2.3620169204737738 L-5.75 0.24221996615905336 z"/>
<path fill="#ffb09d" stroke="#ffb09d" d="M-6.75 0.9498341793570231 L-6.75 0.24221996615905353 L-5.75 0.24221996615905353 L-5.75 0.9498341793570231 z"/>
<path fill="#ffb09d" stroke="#ffb09d" d="M-6.75 3.0696311336717432 L-5.75 3.0696311336717432 L-5.75 2.3620169204737738 L-6.75 2.3620169204737738 z"/>
<path fill="#ffb09d" stroke="#ffb09d" d="M-6.75 -0.8475059221658195 L-6.75 1.2722910321489012 L-6.75 0.5646768189509317 L-6.75 -1.555120135363789 z"/>
<path fill="#ffb09d" stroke="#ffb09d" d="M-5.75 -0.8475059221658195 L-5.75 1.2722910321489012 L-6.75 1.2722910321489012 L-6.75 -0.8475059221658195 z"/>
<path fill="#ffb09d" stroke="#ffb09d" d="M-5.75 -1.555120135363789 L-5.75 0.5646768189509317 L-5.75 1.2722910321489012 L-5.75 -0.8475059221658195 z"/>
<path fill="#ffb09d" stroke="#ffb09d" d="M-6.75 -1.5551201353637907 L-6.75 0.56467681895093 L-5.75 0.56467681895093 L-5.75 -1.5551201353637907 z"/>
<path fill="#ffb09d" stroke="#ffb09d" d="M-6.75 -0.8475059221658193 L-6.75 -1.555120135363789 L-5.75 -1.555120135363789 L-5.75 -0.8475059221658193 z"/>
<path fill="#ffb09d" stroke="#ffb09d" d="M-6.75 1.2722910321489012 L-5.75 1.2722910321489012 L-5.75 0.5646768189509316 L-6.75 0.5646768189509316 z"/>
<path fill="#ffb09d" stroke="#ffb09d" d="M-6.75 -2.6448460236886615 L-6.75 -0.5250490693739407 L-6.75 -1.2326632825719102 L-6.75 -3.352460236886631 z"/>
<path fill="#ffb09d" stroke="#ffb09d" d="M-5.75 -2.644846023688664 L-5.75 -0.5250490693739435 L-6.75 -0.5250490693739435 L-6.75 -2.644846023688664 z"/>
<path fill="#ffb09d" stroke="#ffb09d" d="M-5.75 -3.352460236886631 L-5.75 -1.2326632825719102 L-5.75 -0.5250490693739407 L-5.75 -2.6448460236886615 z"/>
<path fill="#ffb09d" stroke="#ffb09d" d="M-6.75 -3.3524602368866314 L-6.75 -1.2326632825719108 L-5.75 -1.2326632825719108 L-5.75 -3.3524602368866314 z"/>
<path fill="#ffb09d" stroke="#ffb09d" d="M-6.75 -2.644846023688661 L-6.75 -3.3524602368866305 L-5.75 -3.3524602368866305 L-5.75 -2.644846023688661 z"/>
<path fill="#ffb09d" stroke="#ffb09d" d="M-6.75 -0.5250490693739407 L-5.75 -0.5250490693739407 L-5.75 -1.2326632825719102 L-6.75 -1.2326632825719102 z"/>
<path fill="#ffb09d" stroke="#ffb09d" d="M-6.75 -4.442186125211505 L-6.75 -2.3223891708967837 L-6.75 -3.0300033840947536 L-6.75 -5.149800338409474 z"/>
<path fill="#ffb09d" stroke="#ffb09d" d="M-5.75 -4.442186125211507 L-5.75 -2.3223891708967868 L-6.75 -2.3223891708967868 L-6.75 -4.442186125211507 z"/>
<path fill="#ffb09d" stroke="#ffb09d" d="M-5.75 -5.149800338409474 L-5.75 -3.0300033840947536 L-5.75 -2.3223891708967837 L-5.75 -4.442186125211505 z"/>
<path fill="#ffb09d" stroke="#ffb09d" d="M-6.75 -5.149800338409475 L-6.75 -3.030003384094754 L-5.75 -3.030003384094754 L-5.75 -5.149800338409475 z"/>
<path fill="#ffb09d" stroke="#ffb09d" d="M-6.75 -4.442186125211504 L-6.75 -5.149800338409474 L-5.75 -5.149800338409474 L-5.75 -4.442186125211504 z"/>
<path fill="#ffb09d" stroke="#ffb09d" d="M-6.75 -2.3223891708967837 L-5.75 -2.3223891708967837 L-5.75 -3.030003384094753 L-6.75 -3.030003384094753 z"/>
<path fill="#ffb09d" stroke="#ffb09d" d="M-6.75 -6.239526226734347 L-6.75 -4.119729272419627 L-6.75 -4.827343485617597 L-6.75 -6.947140439932317 z"/>
<path fill="#ffb09d" stroke="#ffb09d" d="M-5.75 -6.239526226734351 L-5.75 -4.11972927241963 L-6.75 -4.11972927241963 L-6.75 -6.239526226734351 z"/>
<path fill="#ffb09d" stroke="#ffb09d" d="M-5.75 -6.947140439932317 L-5.75 -4.827343485617597 L-5.75 -4.119729272419627 L-5.75 -6.239526226734347 z"/>
<path fill="#ffb09d" stroke="#ffb09d" d="M-6.75 -6.947140439932318 L-6.75 -4.827343485617598 L-5.75 -4.827343485617598 L-5.75 -6.947140439932318 z"/>
<path fill="#ffb09d" stroke="#ffb09d" d="M-6.75 -6.239526226734347 L-6.75 -6.9471404399323164 L-5.75 -6.9471404399323164 L-5.75 -6.239526226734347 z"/>
<path fill="#ffb09d" stroke="#ffb09d" d="M-6.75 -4.119729272419627 L-5.75 -4.119729272419627 L-5.75 -4.827343485617597 L-6.75 -4.827343485617597 z"/>
<path fill="#bababa" stroke="#bababa" d="M-4 -1.193401015228425 L-4 -1.6415566835871391 L-4 -5.897725136303814 L-4 -6.3825719120135345 L-9 -6.3825719120135345 L-9 -3.5521150592216566 L-9 -1.6651438240270713 L-9 7.769712351945854 L-4 7.769712351945854 L-4 0.23231058469637264 z"/>
<path fill="#bababa" stroke="#bababa" d="M9 4.939255499153976 L9 3.052284263959392 L9 -6.3825719120135345 L4 -6.3825719120135345 L4 1.1548298552359475 L4 2.5805414551607453 L4 3.0286971235194593 L4 7.284865576236135 L4 7.769712351945854 L9 7.769712351945854 z"/>
<path fill="#bababa" stroke="#bababa" d="M-9 10.242808798646362 L-7.846153846153846 10.242808798646362 L-4 10.242808798646362 L-4 9.33600676818951 L-4 7.769712351945854 L-9 7.769712351945854 L-9 9.74818950930626 z"/>
<path fill="#bababa" stroke="#bababa" d="M6 10.242808798646362 L9 10.242808798646362 L9 9.182910321489 L9 8.264331641285956 L9 7.769712351945854 L4 7.769712351945854 L4 8.676514382402708 L4 8.775257061043861 L4 9.92162744193201 L4 10.242808798646362 z"/>
<path fill="#bababa" stroke="#bababa" d="M-6 -3.909475465313028 L-9 -3.909475465313028 L-9 -4.969373942470391 L-9 -5.887952622673435 L-9 -6.382571912013537 L-4 -6.382571912013537 L-4 -5.475769881556684 L-4 -5.37702720291553 L-4 -4.230656822027382 L-4 -3.909475465313028 z"/>
<path fill="#bababa" stroke="#bababa" d="M9 -3.909475465313028 L7.846153846153846 -3.909475465313028 L4 -3.909475465313028 L4 -4.816277495769881 L4 -6.382571912013537 L9 -6.382571912013537 L9 -4.40409475465313 z"/>
<path fill="#bababa" stroke="#bababa" d="M4 -6.3825719120135345 L4 -4.81627749576988 L4 -3.9094754653130273 L4 -4.617089678510997 L4 -10.976480541455159 L4 -9.419729272419625 L4 1.524703891708969 L4 4.59103214890017 L4 10.950423011844332 L4 10.242808798646362 L4 9.92162744193201 L4 8.775257061043863 L4 8.676514382402708 L4 7.769712351945855 L4 7.284865576236135 L4 3.0286971235194593 L4 2.5805414551607453 L4 1.1548298552359477 z"/>
<path fill="#bababa" stroke="#bababa" d="M-4 -6.3825719120135345 L-4 -5.897725136303815 L-4 -1.6415566835871391 L-4 -1.1934010152284251 L-4 0.23231058469637267 L-4 7.769712351945855 L-4 9.33600676818951 L-4 10.242808798646362 L-4 10.950423011844332 L-4 4.59103214890017 L-4 3.034280879864637 L-4 -7.910152284263957 L-4 -10.976480541455159 L-4 -4.617089678510997 L-4 -3.9094754653130273 L-4 -4.230656822027378 L-4 -5.377027202915526 L-4 -5.4757698815566815 z"/>
<path fill="#bababa" stroke="#bababa" d="M-4 10.95042301184433 L4 10.95042301184433 L4 4.59103214890017 L3.1999999999999997 4.59103214890017 L-4 4.59103214890017 z"/>
<path fill="#bababa" stroke="#bababa" d="M4 -10.97648054145516 L4 -4.617089678510998 L-4 -4.617089678510998 L-4 -10.97648054145516 L-3.1999999999999997 -10.97648054145516 z"/>
<path fill="#bababa" stroke="#bababa" d="M-9 9.748189509306261 L-9 7.769712351945855 L-9 -1.6651438240270715 L-9 -3.5521150592216566 L-9 -6.3825719120135345 L-9 -5.887952622673433 L-9 -4.969373942470387 L-9 -3.9094754653130273 L-9 -7.447546531302875 L-9 -13.806937394247036 L-9 7.4214890016920485 L-9 13.78087986463621 L-9 10.242808798646362 z"/>
<path fill="#bababa" stroke="#bababa" d="M9 13.780879864636209 L-9 13.780879864636209 L-9 7.4214890016920485 L9 7.4214890016920485 z"/>
<path fill="#bababa" stroke="#bababa" d="M9 -4.404094754653129 L9 -6.3825719120135345 L9 3.052284263959392 L9 4.939255499153977 L9 7.769712351945855 L9 8.264331641285956 L9 9.182910321489002 L9 10.242808798646362 L9 13.78087986463621 L9 7.4214890016920485 L9 -13.806937394247036 L9 -7.447546531302875 L9 -3.9094754653130273 z"/>
<path fill="#bababa" stroke="#bababa" d="M-9 -7.447546531302881 L9 -7.447546531302881 L9 -13.80693739424704 L-9 -13.80693739424704 z"/>
<path fill="#bababa" stroke="#bababa" d="M-9 -13.806937394247035 L9 -13.806937394247035 L9 7.421489001692047 L-9 7.421489001692047 M-3.1999999999999997 -10.976480541455157 L-4 -10.976480541455157 L-4 -7.910152284263957 L-4 3.034280879864637 L-4 4.59103214890017 L3.1999999999999997 4.59103214890017 L4 4.59103214890017 L4 1.5247038917089688 L4 -9.419729272419625 L4 -10.976480541455157 z"/>
<path fill="#bababa" stroke="#bababa" d="M9 10.242808798646362 L6 10.242808798646362 L4 10.242808798646362 L4 10.95042301184433 L-4 10.95042301184433 L-4 10.242808798646362 L-7.846153846153846 10.242808798646362 L-9 10.242808798646362 L-9 13.780879864636207 L9 13.780879864636207 z"/>
<path fill="#bababa" stroke="#bababa" d="M9 -3.909475465313027 L9 -7.447546531302875 L-9 -7.447546531302875 L-9 -3.909475465313027 L-6 -3.909475465313027 L-4 -3.909475465313027 L-4 -4.617089678510997 L4 -4.617089678510997 L4 -3.909475465313027 L7.846153846153846 -3.909475465313027 z"/>
</svg>