<?xml version="1.0" encoding="UTF-8"?>
<!-- Generated by jsxcad -->
<!DOCTYPE svg PUBLIC "-//W3C//DTD SVG 1.1 Tiny//EN" "http://www.w3.org/Graphics/SVG/1.1/DTD/svg11-tiny.dtd">
<svg baseProfile="tiny" height="39.40989847715739mm" width="22.10000000000001mm" viewBox="-9.000000000000007 -35.60296108291035 22.10000000000001 39.40989847715739" version="1.1" stroke="black" stroke-width=".1" fill="none" xmlns="http://www.w3.org/2000/svg">
<path fill="#3c3c3c" stroke="#3c3c3c" d="M5 14.060829103214894 L5 17.240524534686973 L5 2.0268189509306307 L5 -1.1528764805414504 z"/>
<path fill="#3c3c3c" stroke="#3c3c3c" d="M7.5 14.060829103214887 L7.5 17.240524534686973 L5 17.240524534686973 L5 14.060829103214887 z"/>
<path fill="#3c3c3c" stroke="#3c3c3c" d="M7.5 -1.1528764805414504 L7.5 2.0268189509306307 L7.5 17.240524534686973 L7.5 14.060829103214894 z"/>
<path fill="#3c3c3c" stroke="#3c3c3c" d="M5 -1.1528764805414575 L5 2.0268189509306263 L7.5 2.0268189509306263 L7.5 -1.1528764805414575 z"/>
<path fill="#3c3c3c" stroke="#3c3c3c" d="M5 14.060829103214893 L5 -1.1528764805414502 L7.5 -1.1528764805414502 L7.5 14.060829103214893 z"/>
<path fill="#3c3c3c" stroke="#3c3c3c" d="M5 17.240524534686973 L7.5 17.240524534686973 L7.5 2.0268189509306302 L5 2.0268189509306302 z"/>
<path fill="#ffb09d" stroke="#ffb09d" d="M5.75 16.34185448392555 L5.75 18.461651438240274 L5.75 17.754037225042303 L5.75 15.634240270727584 z"/>
<path fill="#ffb09d" stroke="#ffb09d" d="M6.75 16.34185448392555 L6.75 18.461651438240274 L5.75 18.461651438240274 L5.75 16.34185448392555 z"/>
<path fill="#ffb09d" stroke="#ffb09d" d="M6.75 15.634240270727584 L6.75 17.754037225042303 L6.75 18.461651438240274 L6.75 16.34185448392555 z"/>
<path fill="#ffb09d" stroke="#ffb09d" d="M5.75 15.634240270727574 L5.75 17.754037225042293 L6.75 17.754037225042293 L6.75 15.634240270727574 z"/>
<path fill="#ffb09d" stroke="#ffb09d" d="M5.75 16.34185448392555 L5.75 15.634240270727584 L6.75 15.634240270727584 L6.75 16.34185448392555 z"/>
<path fill="#ffb09d" stroke="#ffb09d" d="M5.75 18.46165143824027 L6.75 18.46165143824027 L6.75 17.754037225042303 L5.75 17.754037225042303 z"/>
<path fill="#ffb09d" stroke="#ffb09d" d="M5.75 14.544514382402712 L5.75 16.664311336717432 L5.75 15.956697123519463 L5.75 13.83690016920474 z"/>
<path fill="#ffb09d" stroke="#ffb09d" d="M6.75 14.544514382402706 L6.75 16.664311336717425 L5.75 16.664311336717425 L5.75 14.544514382402706 z"/>
<path fill="#ffb09d" stroke="#ffb09d" d="M6.75 13.83690016920474 L6.75 15.956697123519463 L6.75 16.664311336717432 L6.75 14.544514382402712 z"/>
<path fill="#ffb09d" stroke="#ffb09d" d="M5.75 13.836900169204728 L5.75 15.956697123519449 L6.75 15.956697123519449 L6.75 13.836900169204728 z"/>
<path fill="#ffb09d" stroke="#ffb09d" d="M5.75 14.54451438240271 L5.75 13.836900169204739 L6.75 13.836900169204739 L6.75 14.54451438240271 z"/>
<path fill="#ffb09d" stroke="#ffb09d" d="M5.75 16.66431133671743 L6.75 16.66431133671743 L6.75 15.956697123519461 L5.75 15.956697123519461 z"/>
<path fill="#ffb09d" stroke="#ffb09d" d="M5.75 12.747174280879868 L5.75 14.866971235194589 L5.75 14.15935702199662 L5.75 12.039560067681899 z"/>
<path fill="#ffb09d" stroke="#ffb09d" d="M6.75 12.747174280879861 L6.75 14.866971235194582 L5.75 14.866971235194582 L5.75 12.747174280879861 z"/>
<path fill="#ffb09d" stroke="#ffb09d" d="M6.75 12.039560067681899 L6.75 14.15935702199662 L6.75 14.866971235194589 L6.75 12.747174280879868 z"/>
<path fill="#ffb09d" stroke="#ffb09d" d="M5.75 12.039560067681897 L5.75 14.159357021996618 L6.75 14.159357021996618 L6.75 12.039560067681897 z"/>
<path fill="#ffb09d" stroke="#ffb09d" d="M5.75 12.747174280879866 L5.75 12.039560067681897 L6.75 12.039560067681897 L6.75 12.747174280879866 z"/>
<path fill="#ffb09d" stroke="#ffb09d" d="M5.75 14.866971235194589 L6.75 14.866971235194589 L6.75 14.159357021996618 L5.75 14.159357021996618 z"/>
<path fill="#ffb09d" stroke="#ffb09d" d="M5.75 10.949834179357026 L5.75 13.069631133671747 L5.75 12.362016920473778 L5.75 10.242219966159055 z"/>
<path fill="#ffb09d" stroke="#ffb09d" d="M6.75 10.949834179357016 L6.75 13.069631133671736 L5.75 13.069631133671736 L5.75 10.949834179357016 z"/>
<path fill="#ffb09d" stroke="#ffb09d" d="M6.75 10.242219966159055 L6.75 12.362016920473778 L6.75 13.069631133671747 L6.75 10.949834179357026 z"/>
<path fill="#ffb09d" stroke="#ffb09d" d="M5.75 10.242219966159052 L5.75 12.362016920473772 L6.75 12.362016920473772 L6.75 10.242219966159052 z"/>
<path fill="#ffb09d" stroke="#ffb09d" d="M5.75 10.949834179357024 L5.75 10.242219966159055 L6.75 10.242219966159055 L6.75 10.949834179357024 z"/>
<path fill="#ffb09d" stroke="#ffb09d" d="M5.75 13.069631133671747 L6.75 13.069631133671747 L6.75 12.362016920473776 L5.75 12.362016920473776 z"/>
<path fill="#ffb09d" stroke="#ffb09d" d="M5.75 9.152494077834183 L5.75 11.272291032148903 L5.75 10.564676818950934 L5.75 8.444879864636214 z"/>
<path fill="#ffb09d" stroke="#ffb09d" d="M6.75 9.152494077834168 L6.75 11.272291032148889 L5.75 11.272291032148889 L5.75 9.152494077834168 z"/>
<path fill="#ffb09d" stroke="#ffb09d" d="M6.75 8.444879864636214 L6.75 10.564676818950934 L6.75 11.272291032148903 L6.75 9.152494077834183 z"/>
<path fill="#ffb09d" stroke="#ffb09d" d="M5.75 8.444879864636205 L5.75 10.564676818950925 L6.75 10.564676818950925 L6.75 8.444879864636205 z"/>
<path fill="#ffb09d" stroke="#ffb09d" d="M5.75 9.152494077834183 L5.75 8.444879864636214 L6.75 8.444879864636214 L6.75 9.152494077834183 z"/>
<path fill="#ffb09d" stroke="#ffb09d" d="M5.75 11.272291032148903 L6.75 11.272291032148903 L6.75 10.564676818950934 L5.75 10.564676818950934 z"/>
<path fill="#ffb09d" stroke="#ffb09d" d="M5.75 7.355153976311342 L5.75 9.474950930626061 L5.75 8.767336717428092 L5.75 6.647539763113372 z"/>
<path fill="#ffb09d" stroke="#ffb09d" d="M6.75 7.35515397631134 L6.75 9.47495093062606 L5.75 9.47495093062606 L5.75 7.35515397631134 z"/>
<path fill="#ffb09d" stroke="#ffb09d" d="M6.75 6.647539763113372 L6.75 8.767336717428092 L6.75 9.474950930626061 L6.75 7.355153976311342 z"/>
<path fill="#ffb09d" stroke="#ffb09d" d="M5.75 6.647539763113361 L5.75 8.767336717428082 L6.75 8.767336717428082 L6.75 6.647539763113361 z"/>
<path fill="#ffb09d" stroke="#ffb09d" d="M5.75 7.355153976311342 L5.75 6.647539763113372 L6.75 6.647539763113372 L6.75 7.355153976311342 z"/>
<path fill="#ffb09d" stroke="#ffb09d" d="M5.75 9.474950930626061 L6.75 9.474950930626061 L6.75 8.76733671742809 L5.75 8.76733671742809 z"/>
<path fill="#ffb09d" stroke="#ffb09d" d="M5.75 5.557813874788498 L5.75 7.6776108291032195 L5.75 6.9699966159052495 L5.75 4.850199661590529 z"/>
<path fill="#ffb09d" stroke="#ffb09d" d="M6.75 5.557813874788493 L6.75 7.677610829103213 L5.75 7.677610829103213 L5.75 5.557813874788493 z"/>
<path fill="#ffb09d" stroke="#ffb09d" d="M6.75 4.850199661590529 L6.75 6.9699966159052495 L6.75 7.6776108291032195 L6.75 5.557813874788498 z"/>
<path fill="#ffb09d" stroke="#ffb09d" d="M5.75 4.850199661590514 L5.75 6.9699966159052344 L6.75 6.9699966159052344 L6.75 4.850199661590514 z"/>
<path fill="#ffb09d" stroke="#ffb09d" d="M5.75 5.557813874788498 L5.75 4.850199661590529 L6.75 4.850199661590529 L6.75 5.557813874788498 z"/>
<path fill="#ffb09d" stroke="#ffb09d" d="M5.75 7.677610829103218 L6.75 7.677610829103218 L6.75 6.969996615905249 L5.75 6.969996615905249 z"/>
<path fill="#ffb09d" stroke="#ffb09d" d="M5.75 3.7604737732656552 L5.75 5.880270727580376 L5.75 5.172656514382406 L5.75 3.0528595600676858 z"/>
<path fill="#ffb09d" stroke="#ffb09d" d="M6.75 3.7604737732656455 L6.75 5.880270727580366 L5.75 5.880270727580366 L5.75 3.7604737732656455 z"/>
<path fill="#ffb09d" stroke="#ffb09d" d="M6.75 3.0528595600676858 L6.75 5.172656514382406 L6.75 5.880270727580376 L6.75 3.7604737732656552 z"/>
<path fill="#ffb09d" stroke="#ffb09d" d="M5.75 3.0528595600676818 L5.75 5.172656514382402 L6.75 5.172656514382402 L6.75 3.0528595600676818 z"/>
<path fill="#ffb09d" stroke="#ffb09d" d="M5.75 3.7604737732656552 L5.75 3.0528595600676853 L6.75 3.0528595600676853 L6.75 3.7604737732656552 z"/>
<path fill="#ffb09d" stroke="#ffb09d" d="M5.75 5.880270727580375 L6.75 5.880270727580375 L6.75 5.172656514382406 L5.75 5.172656514382406 z"/>
<path fill="#3c3c3c" stroke="#3c3c3c" d="M-7.5 14.060829103214894 L-7.5 17.240524534686973 L-7.5 2.0268189509306307 L-7.5 -1.1528764805414504 z"/>
<path fill="#3c3c3c" stroke="#3c3c3c" d="M-5 14.060829103214887 L-5 17.240524534686973 L-7.5 17.240524534686973 L-7.5 14.060829103214887 z"/>
<path fill="#3c3c3c" stroke="#3c3c3c" d="M-5 -1.1528764805414504 L-5 2.0268189509306307 L-5 17.240524534686973 L-5 14.060829103214894 z"/>
<path fill="#3c3c3c" stroke="#3c3c3c" d="M-7.5 -1.1528764805414575 L-7.5 2.0268189509306263 L-5 2.0268189509306263 L-5 -1.1528764805414575 z"/>
<path fill="#3c3c3c" stroke="#3c3c3c" d="M-7.5 14.060829103214893 L-7.5 -1.1528764805414502 L-5 -1.1528764805414502 L-5 14.060829103214893 z"/>
<path fill="#3c3c3c" stroke="#3c3c3c" d="M-7.5 17.240524534686973 L-5 17.240524534686973 L-5 2.0268189509306302 L-7.5 2.0268189509306302 z"/>
<path fill="#ffb09d" stroke="#ffb09d" d="M-6.75 16.34185448392555 L-6.75 18.461651438240274 L-6.75 17.754037225042303 L-6.75 15.634240270727584 z"/>
<path fill="#ffb09d" stroke="#ffb09d" d="M-5.75 16.34185448392555 L-5.75 18.461651438240274 L-6.75 18.461651438240274 L-6.75 16.34185448392555 z"/>
<path fill="#ffb09d" stroke="#ffb09d" d="M-5.75 15.634240270727584 L-5.75 17.754037225042303 L-5.75 18.461651438240274 L-5.75 16.34185448392555 z"/>
<path fill="#ffb09d" stroke="#ffb09d" d="M-6.75 15.634240270727574 L-6.75 17.754037225042293 L-5.75 17.754037225042293 L-5.75 15.634240270727574 z"/>
<path fill="#ffb09d" stroke="#ffb09d" d="M-6.75 16.34185448392555 L-6.75 15.634240270727584 L-5.75 15.634240270727584 L-5.75 16.34185448392555 z"/>
<path fill="#ffb09d" stroke="#ffb09d" d="M-6.75 18.46165143824027 L-5.75 18.46165143824027 L-5.75 17.754037225042303 L-6.75 17.754037225042303 z"/>
<path fill="#ffb09d" stroke="#ffb09d" d="M-6.75 14.544514382402712 L-6.75 16.664311336717432 L-6.75 15.956697123519463 L-6.75 13.83690016920474 z"/>
<path fill="#ffb09d" stroke="#ffb09d" d="M-5.75 14.544514382402706 L-5.75 16.664311336717425 L-6.75 16.664311336717425 L-6.75 14.544514382402706 z"/>
<path fill="#ffb09d" stroke="#ffb09d" d="M-5.75 13.83690016920474 L-5.75 15.956697123519463 L-5.75 16.664311336717432 L-5.75 14.544514382402712 z"/>
<path fill="#ffb09d" stroke="#ffb09d" d="M-6.75 13.836900169204728 L-6.75 15.956697123519449 L-5.75 15.956697123519449 L-5.75 13.836900169204728 z"/>
<path fill="#ffb09d" stroke="#ffb09d" d="M-6.75 14.54451438240271 L-6.75 13.836900169204739 L-5.75 13.836900169204739 L-5.75 14.54451438240271 z"/>
<path fill="#ffb09d" stroke="#ffb09d" d="M-6.75 16.66431133671743 L-5.75 16.66431133671743 L-5.75 15.956697123519461 L-6.75 15.956697123519461 z"/>
<path fill="#ffb09d" stroke="#ffb09d" d="M-6.75 12.747174280879868 L-6.75 14.866971235194589 L-6.75 14.15935702199662 L-6.75 12.039560067681899 z"/>
<path fill="#ffb09d" stroke="#ffb09d" d="M-5.75 12.747174280879861 L-5.75 14.866971235194582 L-6.75 14.866971235194582 L-6.75 12.747174280879861 z"/>
<path fill="#ffb09d" stroke="#ffb09d" d="M-5.75 12.039560067681899 L-5.75 14.15935702199662 L-5.75 14.866971235194589 L-5.75 12.747174280879868 z"/>
<path fill="#ffb09d" stroke="#ffb09d" d="M-6.75 12.039560067681897 L-6.75 14.159357021996618 L-5.75 14.159357021996618 L-5.75 12.039560067681897 z"/>
<path fill="#ffb09d" stroke="#ffb09d" d="M-6.75 12.747174280879866 L-6.75 12.039560067681897 L-5.75 12.039560067681897 L-5.75 12.747174280879866 z"/>
<path fill="#ffb09d" stroke="#ffb09d" d="M-6.75 14.866971235194589 L-5.75 14.866971235194589 L-5.75 14.159357021996618 L-6.75 14.159357021996618 z"/>
<path fill="#ffb09d" stroke="#ffb09d" d="M-6.75 10.949834179357026 L-6.75 13.069631133671747 L-6.75 12.362016920473778 L-6.75 10.242219966159055 z"/>
<path fill="#ffb09d" stroke="#ffb09d" d="M-5.75 10.949834179357016 L-5.75 13.069631133671736 L-6.75 13.069631133671736 L-6.75 10.949834179357016 z"/>
<path fill="#ffb09d" stroke="#ffb09d" d="M-5.75 10.242219966159055 L-5.75 12.362016920473778 L-5.75 13.069631133671747 L-5.75 10.949834179357026 z"/>
<path fill="#ffb09d" stroke="#ffb09d" d="M-6.75 10.242219966159052 L-6.75 12.362016920473772 L-5.75 12.362016920473772 L-5.75 10.242219966159052 z"/>
<path fill="#ffb09d" stroke="#ffb09d" d="M-6.75 10.949834179357024 L-6.75 10.242219966159055 L-5.75 10.242219966159055 L-5.75 10.949834179357024 z"/>
<path fill="#ffb09d" stroke="#ffb09d" d="M-6.75 13.069631133671747 L-5.75 13.069631133671747 L-5.75 12.362016920473776 L-6.75 12.362016920473776 z"/>
<path fill="#ffb09d" stroke="#ffb09d" d="M-6.75 9.152494077834183 L-6.75 11.272291032148903 L-6.75 10.564676818950934 L-6.75 8.444879864636214 z"/>
<path fill="#ffb09d" stroke="#ffb09d" d="M-5.75 9.152494077834168 L-5.75 11.272291032148889 L-6.75 11.272291032148889 L-6.75 9.152494077834168 z"/>
<path fill="#ffb09d" stroke="#ffb09d" d="M-5.75 8.444879864636214 L-5.75 10.564676818950934 L-5.75 11.272291032148903 L-5.75 9.152494077834183 z"/>
<path fill="#ffb09d" stroke="#ffb09d" d="M-6.75 8.444879864636205 L-6.75 10.564676818950925 L-5.75 10.564676818950925 L-5.75 8.444879864636205 z"/>
<path fill="#ffb09d" stroke="#ffb09d" d="M-6.75 9.152494077834183 L-6.75 8.444879864636214 L-5.75 8.444879864636214 L-5.75 9.152494077834183 z"/>
<path fill="#ffb09d" stroke="#ffb09d" d="M-6.75 11.272291032148903 L-5.75 11.272291032148903 L-5.75 10.564676818950934 L-6.75 10.564676818950934 z"/>
<path fill="#ffb09d" stroke="#ffb09d" d="M-6.75 7.355153976311342 L-6.75 9.474950930626061 L-6.75 8.767336717428092 L-6.75 6.647539763113372 z"/>
<path fill="#ffb09d" stroke="#ffb09d" d="M-5.75 7.35515397631134 L-5.75 9.47495093062606 L-6.75 9.47495093062606 L-6.75 7.35515397631134 z"/>
<path fill="#ffb09d" stroke="#ffb09d" d="M-5.75 6.647539763113372 L-5.75 8.767336717428092 L-5.75 9.474950930626061 L-5.75 7.355153976311342 z"/>
<path fill="#ffb09d" stroke="#ffb09d" d="M-6.75 6.647539763113361 L-6.75 8.767336717428082 L-5.75 8.767336717428082 L-5.75 6.647539763113361 z"/>
<path fill="#ffb09d" stroke="#ffb09d" d="M-6.75 7.355153976311342 L-6.75 6.647539763113372 L-5.75 6.647539763113372 L-5.75 7.355153976311342 z"/>
<path fill="#ffb09d" stroke="#ffb09d" d="M-6.75 9.474950930626061 L-5.75 9.474950930626061 L-5.75 8.76733671742809 L-6.75 8.76733671742809 z"/>
<path fill="#ffb09d" stroke="#ffb09d" d="M-6.75 5.557813874788498 L-6.75 7.6776108291032195 L-6.75 6.9699966159052495 L-6.75 4.850199661590529 z"/>
<path fill="#ffb09d" stroke="#ffb09d" d="M-5.75 5.557813874788493 L-5.75 7.677610829103213 L-6.75 7.677610829103213 L-6.75 5.557813874788493 z"/>
<path fill="#ffb09d" stroke="#ffb09d" d="M-5.75 4.850199661590529 L-5.75 6.9699966159052495 L-5.75 7.6776108291032195 L-5.75 5.557813874788498 z"/>
<path fill="#ffb09d" stroke="#ffb09d" d="M-6.75 4.850199661590514 L-6.75 6.9699966159052344 L-5.75 6.9699966159052344 L-5.75 4.850199661590514 z"/>
<path fill="#ffb09d" stroke="#ffb09d" d="M-6.75 5.557813874788498 L-6.75 4.850199661590529 L-5.75 4.850199661590529 L-5.75 5.557813874788498 z"/>
<path fill="#ffb09d" stroke="#ffb09d" d="M-6.75 7.677610829103218 L-5.75 7.677610829103218 L-5.75 6.969996615905249 L-6.75 6.969996615905249 z"/>
<path fill="#ffb09d" stroke="#ffb09d" d="M-6.75 3.7604737732656552 L-6.75 5.880270727580376 L-6.75 5.172656514382406 L-6.75 3.0528595600676858 z"/>
<path fill="#ffb09d" stroke="#ffb09d" d="M-5.75 3.7604737732656455 L-5.75 5.880270727580366 L-6.75 5.880270727580366 L-6.75 3.7604737732656455 z"/>
<path fill="#ffb09d" stroke="#ffb09d" d="M-5.75 3.0528595600676858 L-5.75 5.172656514382406 L-5.75 5.880270727580376 L-5.75 3.7604737732656552 z"/>
<path fill="#ffb09d" stroke="#ffb09d" d="M-6.75 3.0528595600676818 L-6.75 5.172656514382402 L-5.75 5.172656514382402 L-5.75 3.0528595600676818 z"/>
<path fill="#ffb09d" stroke="#ffb09d" d="M-6.75 3.7604737732656552 L-6.75 3.0528595600676853 L-5.75 3.0528595600676853 L-5.75 3.7604737732656552 z"/>
<path fill="#ffb09d" stroke="#ffb09d" d="M-6.75 5.880270727580375 L-5.75 5.880270727580375 L-5.75 5.172656514382406 L-6.75 5.172656514382406 z"/>
<path fill="#000000" stroke="#000000" d="M1.4250000000000012 10.254264470374693 L1.425 11.42015279524779 L2.8500000000000036 13.166666666666668 L2.850000000000005 12.000778341793572 z"/>
<path fill="#000000" stroke="#000000" d="M-1.4249999999999994 10.254264470374691 L-1.4249999999999994 11.420152795247786 L1.4249999999999996 11.420152795247786 L1.4249999999999996 10.254264470374691 z"/>
<path fill="#000000" stroke="#000000" d="M-2.85 12.000778341793573 L-2.850000000000005 13.166666666666668 L-1.425000000000001 11.420152795247787 L-1.425000000000002 10.254264470374691 z"/>
<path fill="#000000" stroke="#000000" d="M-1.4250000000000003 13.747292213212454 L-1.4249999999999983 14.91318053808555 L-2.849999999999995 13.166666666666668 L-2.849999999999994 12.000778341793572 z"/>
<path fill="#000000" stroke="#000000" d="M1.424999999999998 13.747292213212452 L1.424999999999998 14.913180538085545 L-1.4250000000000007 14.913180538085545 L-1.4250000000000007 13.74729221321245 z"/>
<path fill="#000000" stroke="#000000" d="M2.8499999999999943 12.000778341793572 L2.849999999999996 13.16666666666667 L1.424999999999996 14.913180538085552 L1.4249999999999972 13.747292213212456 z"/>
<path fill="#000000" stroke="#000000" d="M1.425 10.254264470374693 L2.85 12.000778341793573 L1.4249999999999983 13.747292213212456 L-1.425000000000001 13.747292213212454 L-2.85 12.000778341793572 L-1.4249999999999996 10.254264470374691 z"/>
<path fill="#000000" stroke="#000000" d="M2.85 13.16666666666667 L1.425 11.420152795247787 L-1.4249999999999996 11.420152795247787 L-2.85 13.16666666666667 L-1.425000000000001 14.91318053808555 L1.4249999999999983 14.91318053808555 z"/>
<path fill="#000000" stroke="#000000" d="M0.7500000000000058 12.247448839604099 L0.750000000000004 29.912423458893436 L1.5000000000000018 30.83164128595601 L1.5000000000000029 13.16666666666667 z"/>
<path fill="#000000" stroke="#000000" d="M-0.7499999999999998 12.247448839604095 L-0.7499999999999998 29.91242345889344 L0.75 29.91242345889344 L0.75 12.247448839604095 z"/>
<path fill="#000000" stroke="#000000" d="M-1.5000000000000007 13.16666666666667 L-1.500000000000001 30.831641285956007 L-0.7500000000000039 29.912423458893436 L-0.7500000000000034 12.2474488396041 z"/>
<path fill="#000000" stroke="#000000" d="M1.4999999999999993 13.16666666666667 L1.4999999999999958 30.831641285956007 L0.7499999999999978 31.750859113018578 L0.7499999999999953 14.085884493729239 z"/>
<path fill="#000000" stroke="#000000" d="M0.7499999999999989 14.085884493729232 L0.7499999999999989 31.750859113018574 L-0.7500000000000003 31.750859113018574 L-0.7500000000000003 14.085884493729232 z"/>
<path fill="#000000" stroke="#000000" d="M-0.7500000000000004 14.085884493729239 L-0.7499999999999971 31.750859113018578 L-1.4999999999999998 30.831641285956007 L-1.499999999999997 13.16666666666667 z"/>
<path fill="#000000" stroke="#000000" d="M0.75 12.247448839604099 L1.5 13.16666666666667 L0.7499999999999991 14.085884493729237 L-0.7500000000000004 14.085884493729237 L-1.5 13.16666666666667 L-0.7499999999999998 12.247448839604099 z"/>
<path fill="#000000" stroke="#000000" d="M0.75 29.91242345889344 L-0.7499999999999998 29.91242345889344 L-1.5 30.831641285956007 L-0.7500000000000004 31.750859113018574 L0.7499999999999991 31.750859113018574 L1.5 30.831641285956007 z"/>
<path fill="#3c3c3c" stroke="#3c3c3c" d="M12.890663911153503 11.208357155874202 L12.890663911153505 12.374245480747298 L13.1 13.16666666666667 L13.100000000000001 12.000778341793573 z"/>
<path fill="#3c3c3c" stroke="#3c3c3c" d="M12.290927643384043 10.522956842070613 L12.290927643384043 11.68884516694371 L12.890663911153503 12.374245480747298 L12.890663911153503 11.208357155874202 z"/>
<path fill="#3c3c3c" stroke="#3c3c3c" d="M10.286031914336233 9.816531809082205 L10.286031914336233 10.982420133955317 L11.381788902907267 11.203032835569324 L11.381788902907267 10.037144510696214 z"/>
<path fill="#3c3c3c" stroke="#3c3c3c" d="M9.15164473077654 9.890913705038738 L9.15164473077654 11.05680202991183 L10.286031914336235 10.982420133955312 L10.286031914336235 9.816531809082218 z"/>
<path fill="#3c3c3c" stroke="#3c3c3c" d="M11.381788902907276 10.03714451069623 L11.381788902907275 11.203032835569324 L12.290927643384048 11.688845166943706 L12.29092764338405 10.522956842070611 z"/>
<path fill="#3c3c3c" stroke="#3c3c3c" d="M8.131832627224302 10.25024451135254 L8.131832627224302 11.41613283622564 L9.15164473077654 11.056802029911836 L9.15164473077654 9.890913705038734 z"/>
<path fill="#3c3c3c" stroke="#3c3c3c" d="M6.952783390979901 11.59770465332021 L6.952783390979902 12.763592978193305 L7.364326879238195 12.011882936383317 L7.3643268792381935 10.845994611510221 z"/>
<path fill="#3c3c3c" stroke="#3c3c3c" d="M6.952783390979905 12.403852030266938 L6.952783390979905 13.569740355140034 L6.952783390979904 12.763592978193305 L6.952783390979904 11.59770465332021 z"/>
<path fill="#3c3c3c" stroke="#3c3c3c" d="M7.364326879238191 10.845994611510221 L7.364326879238192 12.011882936383317 L8.131832627224302 11.416132836225643 L8.131832627224302 10.250244511352546 z"/>
<path fill="#3c3c3c" stroke="#3c3c3c" d="M7.364326879238199 13.155562072076927 L7.364326879238198 14.321450396950024 L6.952783390979906 13.569740355140032 L6.9527833909799055 12.403852030266938 z"/>
<path fill="#3c3c3c" stroke="#3c3c3c" d="M8.131832627224306 13.751312172234604 L8.131832627224306 14.9172004971077 L7.364326879238201 14.321450396950024 L7.3643268792382 13.155562072076927 z"/>
<path fill="#3c3c3c" stroke="#3c3c3c" d="M9.151644730776544 14.110642978548396 L9.151644730776544 15.276531303421498 L8.131832627224306 14.917200497107693 L8.131832627224306 13.751312172234591 z"/>
<path fill="#3c3c3c" stroke="#3c3c3c" d="M10.286031914336235 14.185024874504924 L10.286031914336235 15.350913199378017 L9.151644730776544 15.276531303421498 L9.151644730776544 14.110642978548405 z"/>
<path fill="#3c3c3c" stroke="#3c3c3c" d="M11.381788902907267 13.964412172890917 L11.381788902907267 15.130300497764011 L10.286031914336235 15.350913199378018 L10.286031914336235 14.185024874504926 z"/>
<path fill="#3c3c3c" stroke="#3c3c3c" d="M12.29092764338404 13.478599841516537 L12.290927643384041 14.644488166389632 L11.381788902907267 15.130300497764013 L11.381788902907266 13.964412172890919 z"/>
<path fill="#3c3c3c" stroke="#3c3c3c" d="M13.099999999999998 12.000778341793572 L13.099999999999998 13.16666666666667 L12.890663911153503 13.95908785258604 L12.890663911153503 12.793199527712943 z"/>
<path fill="#3c3c3c" stroke="#3c3c3c" d="M12.890663911153501 12.793199527712943 L12.890663911153503 13.95908785258604 L12.290927643384041 14.64448816638963 L12.29092764338404 13.478599841516534 z"/>
<path fill="#3c3c3c" stroke="#3c3c3c" d="M12.890663911153503 11.2083571558742 L13.1 12.000778341793573 L12.890663911153503 12.793199527712943 L12.290927643384043 13.478599841516534 L11.38178890290727 13.964412172890917 L10.286031914336235 14.185024874504926 L9.151644730776544 14.110642978548405 L8.131832627224306 13.751312172234602 L7.364326879238197 13.155562072076927 L6.952783390979905 12.403852030266938 L6.952783390979904 11.59770465332021 L7.364326879238195 10.845994611510221 L8.131832627224304 10.250244511352545 L9.151644730776543 9.890913705038741 L10.286031914336235 9.816531809082223 L11.381788902907267 10.03714451069623 L12.290927643384043 10.522956842070611 z"/>
<path fill="#3c3c3c" stroke="#3c3c3c" d="M12.890663911153503 12.374245480747298 L12.290927643384043 11.68884516694371 L11.381788902907267 11.203032835569326 L10.286031914336235 10.982420133955317 L9.151644730776543 11.056802029911838 L8.131832627224304 11.416132836225641 L7.364326879238195 12.011882936383317 L6.952783390979904 12.763592978193305 L6.952783390979905 13.569740355140034 L7.364326879238197 14.321450396950024 L8.131832627224306 14.9172004971077 L9.151644730776544 15.276531303421503 L10.286031914336235 15.350913199378018 L11.38178890290727 15.130300497764011 L12.290927643384043 14.64448816638963 L12.890663911153503 13.959087852586041 L13.1 13.16666666666667 z"/>
<path fill="#3c3c3c" stroke="#3c3c3c" d="M11.515544456622768 12.547504230118447 L11.515544456622768 33.74547377326565 L11.75 34.364636209813874 L11.75 13.16666666666667 z"/>
<path fill="#3c3c3c" stroke="#3c3c3c" d="M10.875000000000005 12.094245868427002 L10.875000000000005 33.292215411574205 L11.515544456622766 33.74547377326565 L11.515544456622774 12.547504230118443 z"/>
<path fill="#3c3c3c" stroke="#3c3c3c" d="M9.999999999999998 11.92834179357021 L9.999999999999998 33.12631133671742 L10.874999999999998 33.292215411574205 L10.874999999999998 12.094245868426992 z"/>
<path fill="#3c3c3c" stroke="#3c3c3c" d="M9.124999999999998 12.094245868426995 L9.124999999999998 33.292215411574205 L9.999999999999998 33.12631133671743 L9.999999999999998 11.928341793570214 z"/>
<path fill="#3c3c3c" stroke="#3c3c3c" d="M8.484455543377228 12.547504230118447 L8.484455543377225 33.74547377326565 L9.124999999999995 33.292215411574205 L9.124999999999996 12.094245868427006 z"/>
<path fill="#3c3c3c" stroke="#3c3c3c" d="M8.249999999999998 13.16666666666667 L8.249999999999996 34.364636209813874 L8.484455543377228 33.74547377326565 L8.484455543377232 12.547504230118445 z"/>
<path fill="#3c3c3c" stroke="#3c3c3c" d="M8.484455543377232 13.785829103214892 L8.484455543377234 34.9837986463621 L8.250000000000002 34.36463620981387 L8.25 13.166666666666668 z"/>
<path fill="#3c3c3c" stroke="#3c3c3c" d="M10.874999999999996 14.239087464906335 L10.874999999999996 35.43705700805353 L9.999999999999996 35.60296108291031 L9.999999999999996 14.404991539763117 z"/>
<path fill="#3c3c3c" stroke="#3c3c3c" d="M9.125000000000005 14.239087464906332 L9.125000000000002 35.437057008053536 L8.484455543377234 34.9837986463621 L8.484455543377237 13.78582910321489 z"/>
<path fill="#3c3c3c" stroke="#3c3c3c" d="M9.999999999999996 14.404991539763104 L9.999999999999996 35.60296108291032 L9.124999999999998 35.437057008053536 L9.124999999999998 14.239087464906321 z"/>
<path fill="#3c3c3c" stroke="#3c3c3c" d="M11.515544456622765 13.785829103214896 L11.515544456622761 34.9837986463621 L10.874999999999998 35.43705700805354 L10.874999999999995 14.239087464906335 z"/>
<path fill="#3c3c3c" stroke="#3c3c3c" d="M11.749999999999998 13.16666666666667 L11.749999999999998 34.364636209813874 L11.515544456622765 34.9837986463621 L11.515544456622766 13.785829103214892 z"/>
<path fill="#3c3c3c" stroke="#3c3c3c" d="M11.515544456622766 12.547504230118445 L11.75 13.16666666666667 L11.515544456622766 13.785829103214892 L10.874999999999998 14.239087464906333 L9.999999999999998 14.404991539763115 L9.124999999999998 14.239087464906333 L8.484455543377232 13.785829103214892 L8.25 13.16666666666667 L8.484455543377232 12.547504230118445 L9.125 12.094245868427006 L10 11.928341793570223 L10.875 12.094245868427006 z"/>
<path fill="#3c3c3c" stroke="#3c3c3c" d="M11.75 34.364636209813874 L11.515544456622766 33.74547377326565 L10.875 33.29221541157421 L10 33.12631133671743 L9.125 33.29221541157421 L8.484455543377232 33.74547377326565 L8.25 34.364636209813874 L8.484455543377232 34.9837986463621 L9.124999999999998 35.437057008053536 L9.999999999999998 35.60296108291032 L10.874999999999998 35.437057008053536 L11.515544456622766 34.9837986463621 z"/>
<path fill="#bababa" stroke="#bababa" d="M-4 8.806598984771576 L-4 8.358443316412863 L-4 4.102274863696187 L-4 3.6174280879864678 L-9 3.6174280879864678 L-9 6.447884940778346 L-9 8.33485617597293 L-9 17.769712351945856 L-4 17.769712351945856 L-4 10.232310584696375 z"/>
<path fill="#bababa" stroke="#bababa" d="M9 14.93925549915398 L9 13.052284263959395 L9 3.6174280879864678 L4 3.6174280879864678 L4 11.15482985523595 L4 12.580541455160748 L4 13.02869712351946 L4 17.284865576236136 L4 17.769712351945856 L9 17.769712351945856 z"/>
<path fill="#bababa" stroke="#bababa" d="M-9 20.242808798646358 L-7.846153846153846 20.242808798646358 L-4 20.242808798646358 L-4 19.336006768189513 L-4 17.769712351945856 L-9 17.769712351945856 L-9 19.74818950930626 z"/>
<path fill="#bababa" stroke="#bababa" d="M6 20.242808798646358 L9 20.242808798646358 L9 19.182910321488997 L9 18.264331641285956 L9 17.769712351945856 L4 17.769712351945856 L4 18.676514382402704 L4 18.77525706104386 L4 19.921627441932014 L4 20.242808798646358 z"/>
<path fill="#bababa" stroke="#bababa" d="M-6 6.090524534686969 L-9 6.090524534686969 L-9 5.030626057529606 L-9 4.112047377326562 L-9 3.617428087986456 L-4 3.617428087986456 L-4 4.524230118443317 L-4 4.622972797084463 L-4 5.769343177972615 L-4 6.090524534686969 z"/>
<path fill="#bababa" stroke="#bababa" d="M9 6.090524534686969 L7.846153846153846 6.090524534686969 L4 6.090524534686969 L4 5.183722504230108 L4 3.617428087986456 L9 3.617428087986456 L9 5.595905245346863 z"/>
<path fill="#bababa" stroke="#bababa" d="M4 3.617428087986468 L4 5.183722504230123 L4 6.090524534686976 L4 5.382910321489006 L4 -0.976480541455156 L4 0.5802707275803769 L4 11.524703891708972 L4 14.591032148900172 L4 20.950423011844336 L4 20.242808798646365 L4 19.921627441932014 L4 18.775257061043867 L4 18.67651438240271 L4 17.769712351945856 L4 17.284865576236136 L4 13.028697123519462 L4 12.580541455160748 L4 11.15482985523595 z"/>
<path fill="#bababa" stroke="#bababa" d="M-4 3.617428087986468 L-4 4.102274863696188 L-4 8.358443316412863 L-4 8.806598984771577 L-4 10.232310584696375 L-4 17.769712351945856 L-4 19.336006768189513 L-4 20.242808798646365 L-4 20.950423011844336 L-4 14.591032148900172 L-4 13.03428087986464 L-4 2.0898477157360453 L-4 -0.976480541455156 L-4 5.382910321489006 L-4 6.090524534686976 L-4 5.769343177972624 L-4 4.6229727970844765 L-4 4.524230118443321 z"/>
<path fill="#bababa" stroke="#bababa" d="M-4 20.950423011844332 L4 20.950423011844332 L4 14.59103214890017 L3.1999999999999997 14.59103214890017 L-4 14.59103214890017 z"/>
<path fill="#bababa" stroke="#bababa" d="M4 -0.9764805414551566 L4 5.382910321489003 L-4 5.382910321489003 L-4 -0.9764805414551566 L-3.1999999999999997 -0.9764805414551566 z"/>
<path fill="#bababa" stroke="#bababa" d="M-9 19.748189509306265 L-9 17.769712351945856 L-9 8.33485617597293 L-9 6.447884940778346 L-9 3.617428087986468 L-9 4.1120473773265696 L-9 5.030626057529616 L-9 6.090524534686976 L-9 2.552453468697128 L-9 -3.806937394247034 L-9 17.421489001692052 L-9 23.780879864636212 L-9 20.242808798646365 z"/>
<path fill="#bababa" stroke="#bababa" d="M9 23.7808798646362 L-9 23.7808798646362 L-9 17.42148900169205 L9 17.42148900169205 z"/>
<path fill="#bababa" stroke="#bababa" d="M9 5.595905245346874 L9 3.617428087986468 L9 13.052284263959395 L9 14.93925549915398 L9 17.769712351945856 L9 18.26433164128596 L9 19.182910321489004 L9 20.242808798646365 L9 23.780879864636212 L9 17.421489001692052 L9 -3.806937394247034 L9 2.552453468697128 L9 6.090524534686976 z"/>
<path fill="#bababa" stroke="#bababa" d="M-9 2.552453468697122 L9 2.552453468697122 L9 -3.806937394247043 L-9 -3.806937394247043 z"/>
<path fill="#bababa" stroke="#bababa" d="M-9 -3.8069373942470337 L9 -3.8069373942470337 L9 17.42148900169205 L-9 17.42148900169205 M-3.1999999999999997 -0.976480541455156 L-4 -0.976480541455156 L-4 2.089847715736045 L-4 13.034280879864639 L-4 14.591032148900172 L3.1999999999999997 14.591032148900172 L4 14.591032148900172 L4 11.52470389170897 L4 0.5802707275803769 L4 -0.976480541455156 z"/>
<path fill="#bababa" stroke="#bababa" d="M9 20.24280879864636 L6 20.24280879864636 L4 20.24280879864636 L4 20.950423011844332 L-4 20.950423011844332 L-4 20.24280879864636 L-7.846153846153846 20.24280879864636 L-9 20.24280879864636 L-9 23.780879864636212 L9 23.780879864636212 z"/>
<path fill="#bababa" stroke="#bababa" d="M9 6.090524534686975 L9 2.5524534686971276 L-9 2.5524534686971276 L-9 6.090524534686975 L-6 6.090524534686975 L-4 6.090524534686975 L-4 5.382910321489006 L4 5.382910321489006 L4 6.090524534686975 L7.846153846153846 6.090524534686975 z"/>
</svg>